PathFileType	4	(X/Y/Z)	C:/Users/opensim2020/Desktop/walking_exp_matlab/subject06_walking22_straight_02.trc	
DataRate	CameraRate	NumFrames	NumMarkers	Units	OrigDataRate	OrigDataStartFrame	OrigNumFrames	
100.00	100.00	4	44	mm	100.00	1329	81	
Frame#	Time	LFHD			RFHD			LBHD			RBHD			C7			T10			CLAV			STRN			RBAK			LSHO			LUPA			LELB			LFRM			LWRA			LWRB			LFIN			RSHO			RUPA			RELB			RFRM			RWRA			RWRB			RFIN			LASI			RASI			LPSI			RPSI			LTHI			LKNE			LTIB			LANK			LHEE			LTOE			RTHI			RKNE			RTIB			RANK			RHEE			RTOE			*39			*40			*41			*42			*43			
		X1	Y1	Z1	X2	Y2	Z2	X3	Y3	Z3	X4	Y4	Z4	X5	Y5	Z5	X6	Y6	Z6	X7	Y7	Z7	X8	Y8	Z8	X9	Y9	Z9	X10	Y10	Z10	X11	Y11	Z11	X12	Y12	Z12	X13	Y13	Z13	X14	Y14	Z14	X15	Y15	Z15	X16	Y16	Z16	X17	Y17	Z17	X18	Y18	Z18	X19	Y19	Z19	X20	Y20	Z20	X21	Y21	Z21	X22	Y22	Z22	X23	Y23	Z23	X24	Y24	Z24	X25	Y25	Z25	X26	Y26	Z26	X27	Y27	Z27	X28	Y28	Z28	X29	Y29	Z29	X30	Y30	Z30	X31	Y31	Z31	X32	Y32	Z32	X33	Y33	Z33	X34	Y34	Z34	X35	Y35	Z35	X36	Y36	Z36	X37	Y37	Z37	X38	Y38	Z38	X39	Y39	Z39	X40	Y40	Z40	X41	Y41	Z41	X42	Y42	Z42	X43	Y43	Z43	X44	Y44	Z44	

71	0.700	-873.29260	-308.71054	1643.28931	-1003.72064	-330.51385	1650.84729	-902.87885	-175.29720	1598.40222	-1029.88098	-198.87849	1610.34570	-963.75043	-178.93652	1443.89282	-980.29919	-154.23715	1113.30713	-969.41876	-290.09503	1368.61084	-973.10596	-334.62921	1195.50330	-1044.99915	-106.18659	1274.79077	-805.33600	-239.04143	1394.23950	-734.89728	-227.41391	1192.67603	-724.03467	-212.96812	1080.69080	-701.84021	-231.31535	931.69482	-746.07550	-284.51495	813.67828	-705.22467	-225.88179	812.74463	-705.51685	-260.73956	728.94037	-1127.21338	-236.55746	1406.67505	-1222.93994	-184.86781	1216.71521	-1239.74866	-188.33092	1095.07520	-1258.04541	-219.58717	980.08801	-1222.82031	-302.46335	856.09515	-1264.84155	-250.75119	845.74988	-1261.64099	-301.66687	777.58636	-884.36096	-348.06659	964.31049	-1102.97498	-327.12326	966.89795	-899.36316	-188.62619	982.02771	-1065.76563	-180.01436	978.82141	-831.30817	-320.53061	644.94470	-862.79724	-337.40112	483.01431	-868.82135	-271.98340	232.81137	-910.83051	-234.00981	66.38395	-951.74426	-186.69394	55.27005	-923.61102	-374.59875	35.80283	-1165.84265	-351.28323	635.57013	-1154.13647	-402.72165	519.32080	-1130.58569	-257.43784	309.09549	-1075.40723	-146.72673	164.17230	-1023.01721	-107.68951	161.56033	-1095.85803	-252.48563	54.47518	-942.00220	-221.62950	1695.89722												 
72	0.710	-873.56360	-323.16843	1644.53210	-1004.00787	-345.09778	1651.71667	-903.01459	-189.26282	1600.08105	-1030.20361	-213.42368	1611.52063	-963.60559	-193.38486	1444.84998	-979.61664	-169.13721	1114.35986	-969.22839	-304.45859	1370.02734	-972.53967	-349.18350	1196.90552	-1044.14111	-120.58311	1275.52759	-805.25867	-253.22354	1395.93091	-734.21112	-244.61684	1194.52539	-723.07159	-232.16446	1082.15747	-701.76044	-255.96774	933.60248	-747.00549	-314.00134	818.33728	-706.40936	-255.66153	814.41565	-707.07117	-294.80652	732.64063	-1127.07336	-250.46027	1407.40735	-1222.56567	-197.67667	1217.58435	-1238.95886	-199.76524	1095.63232	-1257.81104	-227.74200	979.63611	-1224.19421	-307.62189	853.01300	-1265.58179	-254.50195	844.30084	-1262.52954	-303.13831	774.16223	-883.19366	-362.12357	964.62500	-1101.77710	-342.81946	968.44250	-899.32843	-203.01320	982.91095	-1065.90613	-195.44948	980.50653	-831.39020	-328.19626	645.01770	-862.09717	-341.60245	482.43018	-868.59045	-273.49866	232.93948	-910.86853	-234.42464	66.55647	-951.94568	-187.16905	55.79579	-923.68042	-374.97812	35.71507	-1166.38110	-370.55383	638.91650	-1153.88062	-423.48978	523.64709	-1131.19812	-287.47113	305.39331	-1075.98230	-185.94817	153.84903	-1023.19098	-147.61545	148.28360	-1099.46741	-298.18967	51.62006	-942.54102	-236.33081	1697.26147												 
73	0.720	-873.90308	-337.41711	1645.47375	-1004.31915	-359.49469	1652.28259	-903.37378	-203.46979	1601.22888	-1030.60010	-227.76892	1612.29761	-963.46808	-207.66125	1445.59290	-978.99628	-184.10815	1115.02380	-969.16193	-318.53256	1370.85010	-971.89453	-363.90961	1197.86047	-1043.35254	-135.05133	1275.89771	-805.17383	-267.43509	1397.16272	-733.59265	-261.74985	1195.93591	-722.20892	-250.91179	1083.23083	-701.72076	-280.92996	935.45935	-747.86603	-343.78720	823.39868	-707.55188	-285.68054	816.44025	-708.79791	-328.79117	736.67621	-1127.03088	-264.47119	1407.70886	-1221.44482	-210.14784	1217.83203	-1238.22668	-211.27094	1095.89539	-1257.63611	-235.95378	979.01587	-1225.10535	-311.92538	849.35767	-1266.31860	-258.19324	842.83350	-1263.91968	-304.46823	770.85779	-882.00494	-375.96616	964.54828	-1100.47180	-358.60052	969.45459	-899.54468	-217.09673	983.58905	-1066.25928	-210.99854	981.78668	-831.05463	-336.43140	644.89758	-861.41748	-346.11414	481.77338	-868.39209	-275.52081	232.95122	-910.90259	-234.75728	66.84332	-951.58789	-188.16714	55.86324	-923.69482	-375.26959	35.58005	-1167.10925	-389.90863	642.35602	-1153.46423	-443.36337	527.38324	-1132.06116	-317.68619	301.30325	-1077.10681	-226.03207	143.56570	-1024.13843	-188.63971	134.94920	-1103.45276	-344.17981	49.11655	-943.07184	-250.72908	1698.16467												 
74	0.730	-874.21967	-351.59238	1645.99048	-1004.62494	-373.83542	1652.61633	-903.69928	-217.71373	1601.82239	-1030.96814	-241.96986	1612.57739	-963.24463	-221.96758	1445.91541	-978.63177	-198.90259	1115.21729	-969.03876	-333.00598	1371.35449	-971.26068	-378.61215	1198.42053	-1042.57251	-149.66519	1275.88184	-805.12421	-281.79617	1397.96289	-732.93823	-278.86127	1196.88245	-721.09912	-270.10223	1083.97009	-701.58545	-305.58334	937.23755	-748.65717	-373.54672	828.72394	-709.05511	-315.64197	818.42145	-710.56757	-362.98196	741.20190	-1126.98779	-278.65451	1407.63635	-1220.96582	-222.92604	1217.91699	-1237.55750	-222.90977	1095.79956	-1257.54663	-244.21733	978.20435	-1226.59729	-316.51157	845.86835	-1267.11340	-262.10141	841.31641	-1265.71887	-305.66953	767.65332	-880.74158	-389.59247	964.02533	-1099.15625	-374.46933	970.07434	-899.81128	-230.98933	983.98834	-1066.74890	-226.48737	982.76257	-830.82288	-345.07007	644.58954	-860.74445	-351.05365	481.04456	-868.18903	-278.06879	232.82416	-910.85376	-235.14903	67.15934	-951.46063	-188.30197	56.69277	-923.72809	-375.40628	35.36857	-1167.52332	-408.40424	644.85962	-1153.29651	-462.59064	530.55035	-1133.05371	-348.12512	296.99796	-1078.75391	-266.99933	133.15033	-1025.66284	-230.39572	121.74775	-1107.60266	-390.68909	47.03436	-943.54846	-264.99338	1698.62219												 
